<?xml version="1.0" encoding="UTF-8" standalone="no"?>
<svg
   xmlns:dc="http://purl.org/dc/elements/1.1/"
   xmlns:cc="http://creativecommons.org/ns#"
   xmlns:rdf="http://www.w3.org/1999/02/22-rdf-syntax-ns#"
   xmlns:svg="http://www.w3.org/2000/svg"
   xmlns="http://www.w3.org/2000/svg"
   xmlns:sodipodi="http://sodipodi.sourceforge.net/DTD/sodipodi-0.dtd"
   xmlns:inkscape="http://www.inkscape.org/namespaces/inkscape"
   width="227.50555mm"
   height="181.47406mm"
   viewBox="0 0 227.50555 181.47406"
   version="1.1"
   id="svg879"
   inkscape:version="1.0.2 (e86c870879, 2021-01-15, custom)"
   sodipodi:docname="Tennis player in shilhouette.svg">
  <defs
     id="defs873" />
  <sodipodi:namedview
     id="base"
     pagecolor="#ffffff"
     bordercolor="#666666"
     borderopacity="1.0"
     inkscape:pageopacity="0.0"
     inkscape:pageshadow="2"
     inkscape:zoom="0.98994949"
     inkscape:cx="386.16634"
     inkscape:cy="413.12184"
     inkscape:document-units="mm"
     inkscape:current-layer="layer1"
     inkscape:document-rotation="0"
     showgrid="false"
     inkscape:window-width="1920"
     inkscape:window-height="1057"
     inkscape:window-x="-8"
     inkscape:window-y="-8"
     inkscape:window-maximized="1" />
  <metadata
     id="metadata876">
    <rdf:RDF>
      <cc:Work
         rdf:about="">
        <dc:format>image/svg+xml</dc:format>
        <dc:type
           rdf:resource="http://purl.org/dc/dcmitype/StillImage" />
        <dc:title></dc:title>
      </cc:Work>
    </rdf:RDF>
  </metadata>
  <g
     inkscape:label="Layer 1"
     inkscape:groupmode="layer"
     id="layer1"
     transform="translate(7.3131081,-58.894129)">
    <path
       style="fill:#000000;stroke-width:0.264583"
       d="m 159.17512,240.15507 c -0.0744,-0.12038 -0.79581,-0.19574 -1.60312,-0.16744 -0.80731,0.0283 -1.46783,-0.0518 -1.46783,-0.17799 0,-0.12619 -0.38696,-0.23473 -0.8599,-0.2412 -1.08417,-0.0148 -5.42328,-0.85816 -7.34219,-1.42698 -0.80036,-0.23724 -2.05052,-0.59207 -2.77812,-0.7885 -0.72761,-0.19643 -2.11061,-0.65222 -3.07334,-1.01286 -0.96273,-0.36065 -2.8082,-0.92576 -4.10104,-1.2558 -3.32203,-0.84806 -5.97304,-1.75395 -7.72306,-2.63907 -0.8287,-0.41913 -2.40717,-1.11827 -3.50772,-1.55363 -2.87751,-1.13831 -7.42157,-3.70729 -11.52601,-6.51623 -2.37375,-1.62451 -8.29279,-6.3104 -10.59163,-8.385 -0.75118,-0.67791 -2.23975,-1.84213 -3.30795,-2.58717 -1.06819,-0.74504 -2.48713,-1.79774 -3.153195,-2.33933 -0.666064,-0.54158 -2.452002,-1.93372 -3.96875,-3.09364 -3.767195,-2.88093 -3.979817,-3.06617 -7.014257,-6.11077 l -2.669035,-2.67798 -3.019507,-0.98801 c -3.609073,-1.18093 -5.994003,-2.304 -7.480292,-3.52249 -2.011651,-1.64919 -5.481344,-5.20526 -7.266731,-7.44762 -0.971428,-1.22007 -2.266897,-2.82741 -2.878815,-3.57187 -1.210582,-1.4728 -6.321052,-8.08938 -6.947858,-8.99547 -0.213135,-0.3081 -2.35626,-2.56806 -4.7625,-5.02213 -4.015822,-4.09566 -8.376253,-8.01623 -11.762975,-10.57639 -0.738788,-0.55848 -1.522235,-1.21332 -1.740993,-1.45521 -1.007329,-1.11383 -4.100404,-2.95333 -4.965949,-2.95333 -0.354496,0 -0.678722,0.32748 -0.982339,0.99219 -0.249259,0.5457 -0.672804,1.46844 -0.941213,2.05052 -0.75579,1.63905 -1.497095,3.82467 -1.839664,5.42396 -0.171439,0.80036 -0.411869,1.87192 -0.534289,2.38125 -0.122423,0.50932 -0.413904,1.96951 -0.647737,3.24487 -0.384122,2.09504 -0.385961,2.43426 -0.01905,3.51497 0.223356,0.65788 0.406104,1.43011 0.406104,1.71607 0,0.41907 0.181948,0.51992 0.938067,0.51992 1.090284,0 2.052373,0.81658 2.651492,2.25047 0.367721,0.88008 0.582256,4.07937 0.304538,4.5415 -0.406325,0.67613 -1.041262,7.85366 -0.896821,10.13796 0.241319,3.81645 1.701163,8.92451 3.590637,12.56382 0.938279,1.80721 1.035661,2.52083 0.344001,2.52083 -0.722027,0 -1.900436,-0.61791 -1.902767,-0.99773 -0.0011,-0.18496 -0.77597,-1.33891 -1.721856,-2.56435 -0.945885,-1.22543 -1.719791,-2.33945 -1.719791,-2.47559 0,-0.13614 -0.179208,-0.39626 -0.398238,-0.57804 -0.368006,-0.30542 -1.70303,-4.22734 -2.611474,-7.67179 -0.211093,-0.80036 -0.92995,-3.20134 -1.597462,-5.33549 -0.667509,-2.13416 -1.213657,-4.1939 -1.213657,-4.57721 0,-0.3833 -0.161528,-1.01842 -0.358952,-1.41137 -0.321906,-0.64073 -0.616853,-2.76163 -1.111219,-7.99051 -0.08943,-0.94588 -0.344998,-2.79135 -0.56793,-4.10104 -0.306496,-1.80059 -0.355587,-3.12321 -0.201324,-5.42396 0.112204,-1.67349 0.226224,-4.70958 0.253375,-6.74687 0.02715,-2.0373 0.179853,-4.59714 0.339336,-5.68855 0.539906,-3.69478 0.63526,-5.29166 0.315974,-5.29166 -0.347795,0 -4.842622,2.84559 -6.663746,4.21869 -0.686186,0.51738 -1.778434,1.27152 -2.427216,1.67587 -1.756339,1.09464 -3.827492,3.04738 -4.380238,4.12982 -0.4333266,0.84858 -2.5006871,2.97667 -4.2344218,4.35881 -1.1284,0.89956 -5.44687759,2.84532 -5.91570946,2.66541 -0.68109439,-0.26136 -0.53547143,-0.88662 0.27967543,-1.20084 3.31339533,-1.27723 5.43950473,-3.1343 5.75996413,-5.03108 0.098754,-0.58451 0.112826,-1.12948 0.031272,-1.21104 -0.2725478,-0.27254 -2.9230806,0.75388 -4.7510538,1.83986 -1.88543169,1.12011 -4.8579035,3.91532 -5.4887104,5.16139 -0.2013939,0.39782 -0.5776682,1.00726 -0.836165,1.35431 -0.2584969,0.34705 -0.474276,0.8233 -0.4795094,1.05833 -0.00523,0.23504 -0.2993814,0.78209 -0.6536622,1.21566 -1.3972426,1.70997 -1.4856057,-0.94096 -0.092156,-2.76471 0.281318,-0.36819 0.9014635,-1.26475 1.3781011,-1.99236 1.8936181,-2.89067 2.5816713,-3.76894 4.18760168,-5.34527 1.67730011,-1.6464 5.29654422,-3.93911 7.22060912,-4.57411 0.5659408,-0.18677 1.6921326,-0.72986 2.5026482,-1.20684 3.1391264,-1.84738 10.0506254,-6.86411 12.3039494,-8.93086 1.299991,-1.19236 2.639444,-2.38492 2.976563,-2.65014 0.337119,-0.26523 0.612944,-0.76184 0.612944,-1.10359 0,-0.34175 0.227203,-1.61303 0.504896,-2.82507 0.983391,-4.29217 1.199298,-6.39234 0.885545,-8.61384 -0.190889,-1.35157 -0.206827,-2.6007 -0.0465,-3.64403 0.134176,-0.87312 0.316302,-2.12969 0.404725,-2.79237 0.129982,-0.97416 0.294609,-1.26201 0.859695,-1.50323 2.558635,-1.09221 7.399589,-1.51188 13.002054,-1.12716 2.401093,0.16488 5.054187,0.4054 5.895763,0.53449 0.841573,0.1291 1.675011,0.17529 1.852083,0.10267 0.17707,-0.0726 0.87444,-0.93057 1.54971,-1.90655 1.740524,-2.51561 8.165211,-9.53667 13.052973,-14.26462 l 4.159437,-4.023434 -1.41488,-1.500532 C 64.103034,94.19427 60.507484,91.283305 59.134376,90.541334 55.851825,88.767586 49.990341,87.463222 46.882278,87.814859 44.9804,88.030031 44.816046,87.874615 44.667332,85.72034 44.539991,83.875671 43.391345,81.186361 42.105094,79.7214 l -0.835388,-0.951452 0.947751,-1.134383 c 1.636456,-1.95871 2.47696,-4.192741 2.602487,-6.917322 0.119946,-2.60338 -0.10082,-2.177684 2.731852,-5.26775 0.750781,-0.819 1.896179,-2.310126 2.545331,-3.313612 1.475272,-2.280538 2.784737,-3.028804 5.618676,-3.210675 3.318039,-0.212939 5.595334,0.611294 8.74136,3.163805 1.808048,1.466953 3.21115,3.301705 3.459932,4.524351 0.08204,0.403211 0.252854,0.797191 0.379579,0.875511 0.126725,0.07832 0.236522,0.879515 0.243991,1.780432 l 0.01357,1.638031 1.870443,1.455208 c 3.256251,2.533367 3.214553,2.490132 3.013258,3.124356 -0.161867,0.509995 -0.371153,0.579811 -1.73808,0.579811 -1.709039,0 -2.21057,0.365074 -1.412915,1.028491 0.282184,0.234696 0.942824,0.962498 1.468094,1.617342 1.752661,2.185014 4.748792,5.070486 5.660469,5.451411 0.96887,0.404818 1.187731,1.12512 0.51221,1.685754 -0.789594,0.655304 -8.39818,-0.208034 -9.23842,-1.048274 -0.349779,-0.34979 -0.955963,-0.344829 -0.955963,0.0078 0,0.685081 2.300108,3.279564 4.168098,4.701543 2.215374,1.686422 4.076102,2.719962 6.076624,3.375255 0.695561,0.227838 1.681372,0.592868 2.190695,0.811181 0.509323,0.21831 1.164166,0.495866 1.455208,0.616791 1.076812,0.4474 4.30331,1.286005 6.614583,1.719207 1.309688,0.245475 2.976563,0.561938 3.704167,0.703252 0.727604,0.141314 4.418542,0.369769 8.202084,0.507675 3.78354,0.137906 8.01026,0.37021 9.39271,0.516228 1.38245,0.146019 3.16839,0.224753 3.96875,0.174967 2.94339,-0.183097 6.94091,0.231391 8.12858,0.842822 2.81363,1.448504 3.70635,2.920434 5.64233,9.303114 0.15449,0.50933 0.5057,1.46183 0.78046,2.11667 0.27476,0.65484 0.92795,2.38125 1.45153,3.83646 0.52358,1.45521 1.31787,3.41974 1.7651,4.36562 0.44723,0.94589 0.9856,2.31511 1.19638,3.04271 0.60443,2.08645 1.47616,4.16344 2.10991,5.02709 0.32034,0.43656 1.02727,1.74625 1.57093,2.91041 1.27343,2.72682 3.87838,6.62321 5.21394,7.79881 1.02195,0.89956 1.09752,0.9203 3.45999,0.94955 2.51146,0.0311 4.75229,0.54608 5.96609,1.3711 0.60574,0.41172 1.322,0.45701 6.37101,0.40284 6.71313,-0.072 13.70507,-0.48041 16.47637,-0.96233 2.28405,-0.39718 3.83526,-1.21828 6.00447,-3.1783 2.96775,-2.68156 4.2927,-3.62293 7.04953,-5.00867 6.17425,-3.1035 12.73646,-3.61991 21.00505,-1.65295 2.66907,0.63493 5.05628,1.60086 6.69986,2.71096 1.55557,1.05065 3.61013,3.12682 4.14805,4.19169 0.21829,0.4321 0.53457,0.9047 0.70286,1.05022 0.34519,0.29849 0.9453,2.59927 0.91439,3.50573 -0.0112,0.32742 -0.0122,0.8632 -0.002,1.19062 0.0867,2.88094 0.0289,3.29923 -0.63152,4.56407 -0.37989,0.7276 -1.21716,1.88548 -1.86059,2.57306 -0.64344,0.68758 -1.36687,1.55078 -1.60763,1.91823 -0.24076,0.36744 -0.55406,0.66808 -0.69622,0.66808 -0.14217,0 -0.49661,0.23813 -0.78766,0.52917 -0.33779,0.33779 -0.88799,0.53129 -1.52135,0.53505 -0.5751,0.003 -1.27024,0.22338 -1.65365,0.52328 -0.3638,0.28457 -0.87974,0.52005 -1.14654,0.52328 -0.26679,0.003 -1.39789,0.23564 -2.51354,0.51644 -2.53835,0.63889 -6.48378,0.72927 -12.87637,0.29494 -4.47006,-0.3037 -4.9006,-0.38056 -7.01146,-1.25166 -3.56511,-1.47126 -5.94291,-2.63519 -6.32573,-3.09646 -0.19451,-0.23437 -0.48023,-0.42612 -0.63493,-0.42612 -0.1547,0 -0.52708,-0.2279 -0.8275,-0.50644 -0.83385,-0.77313 -3.26196,-2.02618 -5.16768,-2.66682 -1.53942,-0.51751 -2.60099,-0.60194 -10.58333,-0.84175 -8.30295,-0.24943 -23.27996,-0.12052 -25.44965,0.21906 -1.21132,0.18959 -1.51217,-0.27677 -1.68974,-2.61937 -0.30002,-3.95784 -0.69138,-5.0779 -2.6119,-7.47531 -0.4663,-0.58208 -1.37588,-1.83224 -2.02128,-2.77812 -1.31907,-1.93318 -3.6897,-5.01976 -4.77548,-6.21771 -0.78212,-0.86292 -1.03267,-1.26899 -3.34664,-5.42396 -2.50874,-4.50468 -4.39202,-9.24721 -5.06718,-12.76032 l -0.47147,-2.45322 -4.20906,0.0759 c -2.43647,0.0439 -5.10046,0.25148 -6.32572,0.49281 -2.82928,0.55727 -9.195146,0.66079 -11.906257,0.19362 -1.164167,-0.2006 -2.511015,-0.3649 -2.992993,-0.36509 -0.481981,-2e-4 -1.434481,-0.16657 -2.116667,-0.3697 -1.783133,-0.53096 -4.809162,-1.04483 -5.004194,-0.8498 -0.09148,0.0915 0.133474,0.4925 0.499885,0.89116 0.366413,0.39867 0.949256,1.2011 1.295204,1.78318 0.345951,0.58209 0.817846,1.26413 1.048658,1.51566 0.47758,0.52045 3.543072,6.60742 3.833757,7.61247 0.105219,0.3638 0.466941,1.19724 0.80383,1.85208 0.606145,1.17823 2.666061,6.55533 3.294182,8.59896 0.178906,0.58208 0.472551,1.41552 0.652544,1.85208 0.179996,0.43656 0.451062,1.27 0.602369,1.85209 0.151307,0.58208 0.526116,1.71149 0.832911,2.5098 0.306792,0.79831 0.557805,1.70744 0.557805,2.02028 0,0.31284 0.177861,0.90983 0.395246,1.32665 0.21739,0.41682 0.39598,0.93972 0.39688,1.162 7.9e-4,0.22228 0.16831,0.64213 0.37204,0.93299 0.20373,0.29087 0.37042,0.94503 0.37042,1.45369 0,0.50867 0.12034,1.39851 0.26743,1.97743 0.86066,3.38751 1.26198,15.34902 0.64783,19.30882 -0.65804,4.24275 -1.11473,7.98947 -1.25189,10.27062 -0.0772,1.28322 -0.2592,2.55532 -0.40454,2.82688 -0.14533,0.27157 -0.26425,0.89392 -0.26425,1.383 0,1.02786 -1.059269,5.29424 -1.999553,8.05353 -0.355452,1.04309 -0.646279,2.26509 -0.646279,2.71557 0,0.45047 -0.103447,1.02578 -0.229881,1.27847 -0.126434,0.25269 -0.548312,1.09319 -0.937503,1.86778 -0.389192,0.77459 -0.93997,1.99781 -1.22395,2.71828 l -0.516329,1.30993 0.726229,0.31154 c 1.182388,0.50722 5.537046,3.83123 7.677786,5.86064 1.91385,1.81431 2.71003,2.78731 5.88073,7.18674 0.80037,1.11053 1.87193,2.46017 2.38125,2.99919 0.50933,0.53903 1.43512,1.59168 2.05732,2.33921 2.22473,2.67288 6.32397,6.54353 9.09082,8.58388 1.54756,1.14123 2.90491,2.07495 3.01633,2.07495 0.11142,0 0.80976,0.28371 1.55187,0.63047 2.86666,1.33946 3.9293,1.77731 4.67605,1.92665 0.64429,0.12886 0.77428,0.0682 0.77428,-0.36126 0,-0.28386 0.27556,-0.775 0.61237,-1.09141 0.87482,-0.82185 2.47751,-0.76368 4.19663,0.15232 1.36672,0.72824 4.7394,3.6735 6.70851,5.85834 0.57599,0.6391 1.46463,1.43734 1.97477,1.77387 0.51013,0.33654 1.82048,1.22492 2.91189,1.97418 2.34471,1.60966 5.0291,2.90288 6.42259,3.09411 0.54925,0.0754 1.05688,0.23128 1.12805,0.34645 0.0712,0.11516 0.76073,0.14423 1.53234,0.0646 2.22847,-0.23 3.83405,0.91923 2.77035,1.98293 -0.36212,0.36212 -1.43584,0.42674 -1.63863,0.0986 z m 40.55184,-88.29642 c 0.0543,-0.0535 0.0272,-0.28394 -0.0603,-0.51207 -0.11653,-0.30368 -0.35562,-0.36781 -0.89258,-0.23941 -0.99832,0.23871 -1.13029,0.33314 -1.13029,0.80873 0,0.33115 0.19219,0.3748 0.99219,0.22537 0.5457,-0.10194 1.03666,-0.22911 1.09102,-0.28262 z m 4.74821,-0.31854 c 0.0719,-0.50643 -0.0367,-0.59532 -0.7276,-0.59532 -0.61115,0 -0.81215,0.12005 -0.81215,0.48507 0,0.64934 0.2649,0.87595 0.91515,0.78286 0.32774,-0.0469 0.5733,-0.31135 0.6246,-0.67261 z m 4.65632,-0.22675 c 0.73287,-0.28123 0.45077,-0.63315 -0.50753,-0.63315 -0.64676,0 -0.92604,0.11969 -0.92604,0.39688 0,0.40741 0.69086,0.52128 1.43357,0.23627 z m -17.88548,-1.36346 c 0.0688,-0.48194 -0.0424,-0.59261 -0.59532,-0.59261 -0.48287,0 -0.67986,0.14055 -0.67986,0.48507 0,1.02553 1.1306,1.12088 1.27518,0.10754 z m 5.55865,-0.28019 c 0.0779,-0.54956 -0.005,-0.60481 -0.79375,-0.52917 -0.68885,0.0661 -0.89964,0.21814 -0.96765,0.69809 -0.0779,0.54956 0.005,0.60481 0.79375,0.52917 0.68885,-0.0661 0.89964,-0.21814 0.96765,-0.69809 z m 5.07242,-0.18012 c 0,-0.47837 -0.14215,-0.66146 -0.51355,-0.66146 -0.28245,0 -0.59066,0.12476 -0.6849,0.27725 -0.28343,0.4586 0.0877,1.04566 0.66098,1.04566 0.39692,0 0.53747,-0.17298 0.53747,-0.66145 z m 4.97808,-0.19844 c 0.0682,-0.35958 -0.0939,-0.46302 -0.72534,-0.46302 -0.64548,0 -0.81315,0.11274 -0.81315,0.54674 0,0.44 0.1416,0.53039 0.72534,0.46302 0.43747,-0.0505 0.76019,-0.26748 0.81315,-0.54674 z m 5.02708,-0.26459 c 0.0679,-0.35798 -0.0931,-0.46302 -0.70972,-0.46302 -0.84056,0 -1.24118,0.34052 -0.95169,0.80892 0.2745,0.44415 1.56244,0.17601 1.66141,-0.3459 z m -23.56505,-0.62978 c 0.44283,-0.11867 0.59531,-0.35494 0.59531,-0.92243 0,-0.72778 -0.0548,-0.76289 -1.19062,-0.76289 -1.18433,0 -1.19063,0.005 -1.19063,0.92604 0,0.78502 0.0907,0.92549 0.59531,0.92243 0.32743,-0.002 0.86321,-0.0754 1.19063,-0.16315 z m 5.62239,-1.04063 c 0,-0.90429 -0.0351,-0.93941 -0.85989,-0.85989 -0.75611,0.0729 -0.8699,0.1867 -0.94281,0.9428 -0.0795,0.82478 -0.0444,0.8599 0.8599,0.8599 0.90429,0 0.9428,-0.0385 0.9428,-0.94281 z m 5.68855,-0.24781 c 0,-0.72624 -0.0844,-0.80074 -0.99219,-0.87587 -0.97896,-0.081 -0.99219,-0.0694 -0.99219,0.87587 0,0.94521 0.0132,0.95689 0.99219,0.87586 0.90779,-0.0751 0.99219,-0.14963 0.99219,-0.87586 z m 4.68835,-0.14395 c 0.13739,-0.93612 -0.10158,-1.15955 -0.99923,-0.93426 -0.50465,0.12666 -0.64642,0.33522 -0.64642,0.95095 0,0.69307 0.0926,0.78871 0.76372,0.78871 0.64876,0 0.78152,-0.12124 0.88193,-0.8054 z m 4.80217,0.21009 c 0.29064,-1.08451 0.19386,-1.25677 -0.70615,-1.25677 -0.84182,0 -0.86906,0.033 -0.7648,0.92604 0.0882,0.75515 0.21914,0.92604 0.70976,0.92604 0.40028,0 0.65506,-0.19925 0.76119,-0.59531 z m 4.92566,0 c -0.009,-0.85544 -0.36187,-1.52135 -0.80539,-1.52135 -0.63161,0 -0.75965,0.24393 -0.59103,1.12598 0.1051,0.54982 0.2919,0.7261 0.76941,0.7261 0.34684,0 0.62899,-0.14883 0.62701,-0.33073 z m 3.17861,-1.25677 c 0,-0.14552 -0.11907,-0.26458 -0.26459,-0.26458 -0.14552,0 -0.26458,0.11906 -0.26458,0.26458 0,0.14552 0.11906,0.26458 0.26458,0.26458 0.14552,0 0.26459,-0.11906 0.26459,-0.26458 z m -31.75,-0.37523 c 0,-0.20638 0.0759,-0.57306 0.16869,-0.81484 0.13711,-0.35732 0.0257,-0.42327 -0.59531,-0.35237 -0.61027,0.0697 -0.78085,0.23365 -0.84773,0.81484 -0.0721,0.62649 0.0106,0.7276 0.59532,0.7276 0.40979,0 0.67903,-0.14878 0.67903,-0.37523 z m 5.55625,-0.6831 c 0,-0.67028 -0.1029,-0.79375 -0.66146,-0.79375 -0.55857,0 -0.66146,0.12347 -0.66146,0.79375 0,0.67027 0.10289,0.79375 0.66146,0.79375 0.55856,0 0.66146,-0.12348 0.66146,-0.79375 z m 5.55625,-0.28135 c 0,-0.75504 -0.0589,-0.80484 -0.8599,-0.7276 -0.71651,0.0691 -0.87385,0.20423 -0.94361,0.81051 -0.0775,0.67339 -0.0134,0.7276 0.85989,0.7276 0.87641,0 0.94362,-0.0577 0.94362,-0.81051 z m 4.97416,0.49301 c 0.36408,-0.36408 0.42234,-1.17397 0.0988,-1.37391 -0.12027,-0.0743 -0.47746,-0.0675 -0.79375,0.0152 -0.91895,0.24031 -0.74027,1.51574 0.23189,1.65528 0.08,0.0115 0.2884,-0.12199 0.46302,-0.29661 z m 5.03143,-0.80698 c 0.0752,-0.65376 10e-4,-0.7276 -0.7276,-0.7276 -0.72899,0 -0.81133,0.0823 -0.81133,0.81132 0,0.72899 0.0738,0.80283 0.72761,0.72761 0.57149,-0.0658 0.74556,-0.23983 0.81132,-0.81133 z m 4.81107,-0.21601 c 0,-0.72898 -0.0738,-0.80282 -0.7276,-0.7276 -0.57149,0.0658 -0.74557,0.23983 -0.81132,0.81132 -0.0752,0.65377 -0.001,0.72761 0.7276,0.72761 0.72899,0 0.81132,-0.0823 0.81132,-0.81133 z m 4.23334,-0.24701 c 0,-0.51471 -0.13403,-0.79375 -0.38126,-0.79375 -0.52315,0 -0.74401,0.43063 -0.54403,1.06071 0.26589,0.83776 0.92529,0.64752 0.92529,-0.26696 z m -32.54375,-1.19062 c 0,-0.48507 -0.14111,-0.66146 -0.52917,-0.66146 -0.51624,0 -0.74755,0.75176 -0.35278,1.14653 0.40166,0.40166 0.88195,0.1375 0.88195,-0.48507 z m 5.55625,-0.13229 c 0,-0.74965 -0.0588,-0.79375 -1.05834,-0.79375 -0.99953,0 -1.05833,0.0441 -1.05833,0.79375 0,0.74965 0.0588,0.79375 1.05833,0.79375 0.99954,0 1.05834,-0.0441 1.05834,-0.79375 z m 5.13106,0.11065 c 0.34434,-0.89732 0.17303,-1.16899 -0.73713,-1.16899 -0.88045,0 -1.21893,0.33663 -1.21893,1.21227 0,0.54277 1.746,0.50413 1.95606,-0.0433 z m 5.20933,0.15393 c 0.38975,0 0.50752,-0.1879 0.50752,-0.80972 0,-0.7736 -0.0442,-0.80606 -0.98998,-0.72761 -0.70525,0.0585 -1.01608,0.21974 -1.08071,0.5606 -0.14255,0.75178 0.17428,1.31494 0.63936,1.13647 0.22895,-0.0878 0.64467,-0.15974 0.92381,-0.15974 z m 4.89479,-0.26458 c 0.22386,0 0.37523,-0.26684 0.37523,-0.66146 0,-0.57957 -0.11465,-0.66146 -0.92604,-0.66146 -0.79375,0 -0.92604,0.0882 -0.92604,0.61736 0,0.74972 0.24675,1.0336 0.73542,0.84608 0.20141,-0.0773 0.53505,-0.14052 0.74143,-0.14052 z m 5.13773,-0.79375 c 0,-0.70556 -0.0882,-0.79375 -0.79375,-0.79375 -0.70555,0 -0.79375,0.0882 -0.79375,0.79375 0,0.70555 0.0882,0.79375 0.79375,0.79375 0.70556,0 0.79375,-0.0882 0.79375,-0.79375 z m 4.69332,0 c 0.11271,-0.65281 -0.30498,-1.04933 -0.93247,-0.88524 -0.56268,0.14715 -0.78937,0.8581 -0.3983,1.24918 0.31534,0.31534 1.25801,0.0575 1.33077,-0.36394 z m 4.40736,-0.15617 c 0.23943,-0.62395 -0.0425,-0.90217 -0.91421,-0.90217 -0.65362,0 -0.77813,0.10585 -0.77813,0.66146 0,0.55313 0.12536,0.66146 0.76544,0.66146 0.45562,0 0.83079,-0.1703 0.9269,-0.42075 z m -32.64859,-1.71349 c 0,-1.01762 -0.0394,-1.07137 -0.72761,-0.99219 -0.64093,0.0737 -0.73233,0.2019 -0.76732,1.07591 -0.0371,0.92758 0.0103,0.99219 0.72761,0.99219 0.7209,0 0.76732,-0.0651 0.76732,-1.07591 z m 5.55625,-0.24701 c 0,-0.99954 -0.0441,-1.05833 -0.79375,-1.05833 -0.74965,0 -0.79375,0.0588 -0.79375,1.05833 0,0.99954 0.0441,1.05833 0.79375,1.05833 0.74965,0 0.79375,-0.0588 0.79375,-1.05833 z m 5.04872,0.79375 c 0.3604,0 0.50753,-0.18548 0.50753,-0.63982 0,-1.09104 -0.2798,-1.47685 -1.07103,-1.47685 -0.9449,0 -1.11617,0.28103 -0.89376,1.46658 0.12785,0.68147 0.28563,0.90493 0.56364,0.79825 0.21235,-0.0815 0.61448,-0.14816 0.89362,-0.14816 z m 5.53461,-1.36684 c 0,-0.86793 -0.0794,-1.04057 -0.41851,-0.91043 -0.23019,0.0883 -0.58737,0.1606 -0.79375,0.1606 -0.24143,0 -0.37524,0.2861 -0.37524,0.80228 0,0.58894 0.1583,0.8621 0.59531,1.02727 0.8344,0.31535 0.99219,0.14363 0.99219,-1.07972 z m 4.71233,0.11007 c -0.0712,-0.86005 -0.17021,-0.99219 -0.74358,-0.99219 -0.49071,0 -0.68393,0.15864 -0.74853,0.61456 -0.13442,0.9488 0.13865,1.36982 0.88849,1.36982 0.63061,0 0.67913,-0.0798 0.60362,-0.99219 z m 5.01057,-0.25934 c -0.0663,-0.86389 -0.16582,-0.99387 -0.79828,-1.04248 -0.67414,-0.0518 -0.72254,0.0143 -0.72254,0.98694 0,0.98324 0.0454,1.04248 0.79828,1.04248 0.75885,0 0.79454,-0.0488 0.72254,-0.98694 z m 4.03543,-0.0714 c 0,-0.74509 -0.11284,-1.05833 -0.38126,-1.05833 -0.55925,0 -0.73884,0.43937 -0.54336,1.32937 0.26439,1.20374 0.92462,1.0102 0.92462,-0.27104 z m -26.9875,-2.01268 c 0,-0.76154 -0.0846,-0.92191 -0.41851,-0.79375 -0.23018,0.0883 -0.70643,0.1606 -1.05833,0.1606 -0.53452,0 -0.63982,0.13063 -0.63982,0.79375 0,0.74965 0.0588,0.79375 1.05833,0.79375 1.03911,0 1.05833,-0.0173 1.05833,-0.95435 z m 5.29167,-0.10399 c 0,-0.72778 -0.0755,-0.79375 -0.90821,-0.79375 -0.67448,0 -0.95124,0.13558 -1.07541,0.5268 -0.24473,0.77107 0.0483,1.0607 1.07319,1.0607 0.8352,0 0.91043,-0.0656 0.91043,-0.79375 z m 4.96094,0.62699 c 0.44641,-0.11963 0.59531,-0.35435 0.59531,-0.9384 0,-0.73823 -0.0518,-0.77458 -0.99219,-0.69675 -0.99293,0.0822 -1.10161,0.27769 -0.89136,1.60348 0.0377,0.23758 0.47936,0.24844 1.28824,0.0317 z M 82.183968,133.68073 c -0.132911,-2.92158 -0.290158,-3.88937 -0.943708,-5.80811 -0.431323,-1.26631 -1.086987,-2.78199 -1.457034,-3.36818 -0.370043,-0.58619 -0.672809,-1.17095 -0.672809,-1.29948 0,-0.37212 -2.498444,-3.7338 -4.026569,-5.41778 -0.768564,-0.84695 -1.79719,-1.71712 -2.285836,-1.93371 l -0.88845,-0.3938 0.19435,-1.50588 c 0.317865,-2.4629 0.139909,-4.599 -0.552781,-6.63532 -0.0793,-0.23314 -1.594207,1.12033 -4.154122,3.71144 -4.120817,4.17104 -7.956846,7.70017 -9.254821,8.5144 -0.400182,0.25104 -0.723699,0.60252 -0.718926,0.78106 0.0048,0.17855 1.328203,0.97948 2.940958,1.77984 4.627967,2.29673 4.796872,2.39089 5.913906,3.29687 0.582083,0.47209 1.442905,1.05635 1.912935,1.29834 1.141849,0.58787 4.996942,3.45621 7.607389,5.66019 1.161593,0.98073 2.395623,2.02127 2.742288,2.31231 0.346662,0.29104 1.122621,0.97565 1.72435,1.52135 0.601729,0.54571 1.315522,0.99219 1.586209,0.99219 0.463079,0 0.482732,-0.20711 0.332671,-3.50573 z m 121.761752,2.49543 c 0.0815,-0.84879 0.055,-0.87521 -0.79375,-0.79375 -0.78045,0.0749 -0.88737,0.18182 -0.96227,0.96227 -0.0815,0.84879 -0.055,0.87521 0.79375,0.79375 0.78045,-0.0749 0.88737,-0.18182 0.96227,-0.96227 z m 4.80993,-0.0747 c 5.3e-4,-0.86958 -0.0629,-0.95041 -0.727,-0.92604 -0.63864,0.0234 -0.73738,0.14345 -0.8075,0.98161 -0.0762,0.91077 -0.0426,0.95357 0.727,0.92604 0.74462,-0.0266 0.80694,-0.1024 0.8075,-0.98161 z m 4.49852,-0.10559 c 0,-0.81139 -0.0819,-0.92605 -0.66146,-0.92605 -0.57957,0 -0.66146,0.11466 -0.66146,0.92605 0,0.81139 0.0819,0.92604 0.66146,0.92604 0.57956,0 0.66146,-0.11465 0.66146,-0.92604 z m 3.43958,0.41249 c 0,-0.13694 -0.11906,-0.32256 -0.26458,-0.41249 -0.14552,-0.0899 -0.26459,0.0221 -0.26459,0.24896 0,0.22687 0.11907,0.41249 0.26459,0.41249 0.14552,0 0.26458,-0.11203 0.26458,-0.24896 z m -26.34768,-1.23455 c 0.44498,-0.17076 0.60283,-1.69149 0.17557,-1.69149 -0.69641,0 -1.07997,0.38594 -1.07997,1.08665 0,0.78044 0.16289,0.88938 0.9044,0.60484 z m 5.93102,-0.89299 c 0.11965,-0.80396 -0.30543,-1.16562 -1.12751,-0.95929 -0.53318,0.13382 -0.68083,0.33525 -0.68083,0.92882 0,0.69233 0.0745,0.75221 0.8599,0.69168 0.66375,-0.0512 0.88009,-0.20198 0.94844,-0.66121 z m 4.93854,-0.26933 c 0,-0.48451 -0.15925,-0.68407 -0.59532,-0.74601 -0.50888,-0.0723 -0.59531,0.036 -0.59531,0.74601 0,0.70998 0.0864,0.81828 0.59531,0.74601 0.43607,-0.0619 0.59532,-0.26149 0.59532,-0.74601 z m 4.89479,-0.26458 c 0,-0.70556 -0.0882,-0.79375 -0.79375,-0.79375 -0.50883,0 -0.79375,0.13469 -0.79375,0.37523 0,0.77793 0.34193,1.21227 0.95435,1.21227 0.52711,0 0.63315,-0.13294 0.63315,-0.79375 z m 4.7625,-0.26459 c 0,-0.67027 -0.1029,-0.79375 -0.66146,-0.79375 -0.55857,0 -0.66146,0.12348 -0.66146,0.79375 0,0.67028 0.10289,0.79375 0.66146,0.79375 0.55856,0 0.66146,-0.12347 0.66146,-0.79375 z m -17.51025,-1.52135 c 0.10235,-0.72067 -0.73868,-0.82942 -1.38856,-0.17954 -0.6486,0.6486 -0.4935,0.94816 0.44412,0.85776 0.65906,-0.0635 0.87964,-0.22195 0.94444,-0.67822 z m 5.47171,-0.46302 c 0,-0.70556 -0.0882,-0.79375 -0.79375,-0.79375 -0.70556,0 -0.80312,0.0976 -0.87801,0.87801 -0.0815,0.84879 -0.055,0.87521 0.79375,0.79375 0.78045,-0.0749 0.87801,-0.17245 0.87801,-0.87801 z m 4.73505,0.24071 c 0.22927,-0.59748 -0.0348,-0.90217 -0.78192,-0.90217 -0.51251,0 -0.64584,0.13656 -0.64584,0.66146 0,0.52128 0.13418,0.66146 0.63315,0.66146 0.34823,0 0.70581,-0.18934 0.79461,-0.42075 z m 4.26078,0.15616 c 0.0899,-0.14552 -0.0887,-0.26458 -0.39688,-0.26458 -0.30821,0 -0.48681,0.11906 -0.39687,0.26458 0.0899,0.14552 0.26853,0.26459 0.39687,0.26459 0.12835,0 0.30694,-0.11907 0.39688,-0.26459 z M 52.691335,74.36743 c 0.394369,-0.865546 0.07686,-1.976913 -0.64248,-2.248858 -0.958212,-0.362249 -1.078735,-0.01488 -0.283009,0.815685 0.623224,0.650504 0.680691,0.817691 0.352425,1.025258 -0.215725,0.136405 -0.660119,0.249832 -0.987541,0.252061 -0.58492,0.004 -0.766704,0.273632 -0.418923,0.621412 0.09701,0.09701 0.516284,0.176389 0.931714,0.176389 0.542801,0 0.837621,-0.180623 1.047814,-0.641947 z"
       id="path895" />
  </g>
</svg>
